<?xml version="1.0" encoding="UTF-8" standalone="no"?>
<!-- Created with Inkscape (http://www.inkscape.org/) -->

<svg
   width="156.37297mm"
   height="209.20393mm"
   viewBox="0 0 156.37297 209.20393"
   version="1.1"
   id="svg5"
   xmlns="http://www.w3.org/2000/svg"
   xmlns:svg="http://www.w3.org/2000/svg">
  <defs
     id="defs2" />
  <g
     id="layer1"
     transform="translate(-33.616625,-55.814394)">
    <path
       style="fill:#83cd29;fill-opacity:1;stroke-width:3740.22"
       id="path870"
       transform="matrix(0.1701607,0,0,0.17016082,84.25377,148.91571)"
       d="m 347.42171,682.31108 -371.039688,-2e-5 A 88.446452,88.446452 30.000003 0 1 -100.21485,638.08783 L -285.73468,316.75802 a 88.446452,88.446452 90.000003 0 1 1e-5,-88.44645 l 185.51986,-321.329784 a 88.446452,88.446452 150 0 1 76.596872,-44.223226 l 371.039688,2e-5 a 88.446452,88.446452 30.000003 0 1 76.59687,44.223232 L 609.53845,228.31162 a 88.446452,88.446452 90.000003 0 1 0,88.44645 L 424.01859,638.08785 a 88.446452,88.446452 150 0 1 -76.59688,44.22323 z" />
    <path
       style="fill:none;stroke:#83cd29;stroke-width:16;stroke-linecap:round;stroke-linejoin:round;stroke-opacity:1"
       d="M 85.821686,126.28761 V 98.595623 c 0,0 1.491208,-34.781229 32.411214,-34.781229 30.92001,0 31.28972,34.639711 31.28972,34.639711"
       id="path3646" />
    <g
       id="g8500">
      <path
         id="path8141"
         style="fill:#ffffff;stroke-width:8.29633"
         d="m 112.57971,164.96543 c -6.9001,0 -12.49456,5.59371 -12.49381,12.49381 4.5e-4,4.15977 1.93879,7.64452 5.39138,9.9647 l -7.626423,30.35315 c -1.173925,4.38115 1.289636,5.97952 5.192353,5.97952 l 19.45965,0.0258 c 3.82996,0.005 6.05099,-1.45758 4.99808,-5.3871 l -8.23122,-30.88039 c 3.53457,-2.30466 5.80092,-5.8361 5.8038,-10.05565 -1e-4,-6.9001 -5.59371,-12.49384 -12.49381,-12.49384 z" />
    </g>
  </g>
</svg>
